<svg width="445" height="174" viewBox="0 0 445 174" fill="none" xmlns="http://www.w3.org/2000/svg">
<path d="M244.352 53.6668C241.319 52.5001 238.452 51.9168 235.752 51.9168C233.086 51.9168 231.002 52.4835 229.502 53.6168C228.002 54.7501 227.252 56.3168 227.252 58.3168C227.252 60.7501 228.519 62.6335 231.052 63.9668C232.186 64.5335 233.419 65.0668 234.752 65.5668C236.119 66.0335 237.486 66.5668 238.852 67.1668C240.219 67.7668 241.469 68.4501 242.602 69.2168C243.736 69.9835 244.652 71.0501 245.352 72.4168C246.052 73.7501 246.402 75.4668 246.402 77.5668C246.402 79.6335 245.819 81.4001 244.652 82.8668C243.486 84.3335 242.069 85.3335 240.402 85.8668C238.769 86.3668 236.852 86.6168 234.652 86.6168C230.552 86.6168 227.052 85.6001 224.152 83.5668L224.402 83.1668C225.502 84.0335 226.919 84.7501 228.652 85.3168C230.419 85.8501 232.219 86.1168 234.052 86.1168C236.752 86.1168 239.052 85.5001 240.952 84.2668C242.886 83.0001 243.852 81.1501 243.852 78.7168C243.852 76.0501 242.586 73.9668 240.052 72.4668C238.919 71.8001 237.669 71.1835 236.302 70.6168C234.969 70.0501 233.619 69.4668 232.252 68.8668C230.886 68.2335 229.636 67.5335 228.502 66.7668C225.969 65.1001 224.702 62.7335 224.702 59.6668C224.702 57.2335 225.519 55.2668 227.152 53.7668C228.786 52.2335 231.236 51.4668 234.502 51.4668C237.802 51.4668 241.152 52.0335 244.552 53.1668L244.352 53.6668Z" fill="#474A51"/>
<path d="M253.635 80.8168C253.635 83.4501 254.335 85.1335 255.735 85.8668C256.401 86.2001 257.251 86.3668 258.285 86.3668C260.385 86.3668 262.251 85.5668 263.885 83.9668C265.551 82.3668 266.451 80.8835 266.585 79.5168V61.5668H270.085V83.0168C270.085 83.9835 270.268 84.7335 270.635 85.2668C271.035 85.7668 271.435 86.0335 271.835 86.0668L272.385 86.1668H273.935V86.5668H270.885C269.518 86.5668 268.468 86.2668 267.735 85.6668C267.035 85.0668 266.668 84.4668 266.635 83.8668L266.585 83.0168V80.8668C265.985 82.3001 264.918 83.6501 263.385 84.9168C261.851 86.1501 260.168 86.7668 258.335 86.7668C256.535 86.7668 255.051 86.6001 253.885 86.2668C252.751 85.9001 251.935 85.4001 251.435 84.7668C250.568 83.7335 250.135 82.4001 250.135 80.7668V61.5668H253.635V80.8168Z" fill="#474A51"/>
<path d="M277.453 61.9668V61.5668H294.803V61.9668L279.703 86.1668H291.653C293.953 86.1668 295.336 85.5001 295.803 84.1668L296.103 84.3168C296.103 84.4501 295.986 84.6835 295.753 85.0168C295.52 85.3168 295.253 85.5668 294.953 85.7668C294.153 86.3001 293.053 86.5668 291.653 86.5668H276.203V86.1668L291.303 61.9668H277.453Z" fill="#474A51"/>
<path d="M320.492 86.5668C318.225 86.5668 316.675 86.1335 315.842 85.2668C315.075 84.5335 314.692 83.9001 314.692 83.3668V82.3168C313.058 85.2835 310.442 86.7668 306.842 86.7668C302.642 86.7668 300.258 84.8668 299.692 81.0668C299.625 80.6668 299.592 80.2668 299.592 79.8668C299.592 79.4335 299.658 78.9668 299.792 78.4668C299.925 77.9668 300.308 77.4168 300.942 76.8168C302.208 75.6168 304.992 74.8835 309.292 74.6168C310.358 74.5168 311.342 74.4668 312.242 74.4668C313.142 74.4668 313.958 74.5001 314.692 74.5668V66.2668C314.625 66.2335 314.625 66.0835 314.692 65.8168C314.758 65.5168 314.692 65.1501 314.492 64.7168C314.325 64.2501 314.092 63.8001 313.792 63.3668C313.492 62.9335 312.958 62.5668 312.192 62.2668C311.425 61.9335 310.425 61.7668 309.192 61.7668C307.958 61.7668 306.508 62.0001 304.842 62.4668C303.208 62.9001 302.008 63.3335 301.242 63.7668L301.042 63.4168C304.008 62.0501 307.025 61.3668 310.092 61.3668C313.525 61.3668 315.792 61.9835 316.892 63.2168C317.758 64.1835 318.192 65.2001 318.192 66.2668V83.0168C318.192 83.9835 318.375 84.7335 318.742 85.2668C319.142 85.7668 319.542 86.0335 319.942 86.0668L320.492 86.1668H322.042V86.5668H320.492ZM307.642 86.3668C309.408 86.3668 310.992 85.7668 312.392 84.5668C313.825 83.3335 314.592 82.1501 314.692 81.0168V74.9668C313.792 74.9001 312.875 74.8668 311.942 74.8668C311.042 74.8668 310.142 74.9168 309.242 75.0168C306.708 75.3168 305.058 75.8835 304.292 76.7168C303.525 77.5501 303.142 78.7001 303.142 80.1668C303.142 80.4335 303.158 80.7335 303.192 81.0668C303.492 84.6001 304.975 86.3668 307.642 86.3668Z" fill="#474A51"/>
<path d="M345.543 86.5668C344.176 86.5668 343.126 86.2668 342.393 85.6668C341.693 85.0668 341.326 84.4668 341.293 83.8668L341.243 83.0168V67.3168C341.243 64.6835 340.56 63.0001 339.193 62.2668C338.493 61.9335 337.626 61.7668 336.593 61.7668C334.46 61.7668 332.543 62.6168 330.843 64.3168C329.143 65.9835 328.293 67.4835 328.293 68.8168V86.5668H324.793V61.5668H328.293V67.2668C328.86 65.8335 329.91 64.5001 331.443 63.2668C332.976 62.0001 334.66 61.3668 336.493 61.3668C338.326 61.3668 339.81 61.5501 340.943 61.9168C342.11 62.2501 342.96 62.7335 343.493 63.3668C344.326 64.4001 344.743 65.7335 344.743 67.3668V83.0168C344.743 83.9835 344.926 84.7335 345.293 85.2668C345.693 85.7668 346.093 86.0335 346.493 86.0668L347.043 86.1668H348.593V86.5668H345.543Z" fill="#474A51"/>
<path d="M371.861 86.5668C370.495 86.5668 369.445 86.2668 368.711 85.6668C368.011 85.0668 367.645 84.4668 367.611 83.8668L367.561 83.0168V67.3168C367.561 64.6835 366.878 63.0001 365.511 62.2668C364.811 61.9335 363.945 61.7668 362.911 61.7668C360.778 61.7668 358.861 62.6168 357.161 64.3168C355.461 65.9835 354.611 67.4835 354.611 68.8168V86.5668H351.111V61.5668H354.611V67.2668C355.178 65.8335 356.228 64.5001 357.761 63.2668C359.295 62.0001 360.978 61.3668 362.811 61.3668C364.645 61.3668 366.128 61.5501 367.261 61.9168C368.428 62.2501 369.278 62.7335 369.811 63.3668C370.645 64.4001 371.061 65.7335 371.061 67.3668V83.0168C371.061 83.9835 371.245 84.7335 371.611 85.2668C372.011 85.7668 372.411 86.0335 372.811 86.0668L373.361 86.1668H374.911V86.5668H371.861Z" fill="#474A51"/>
<path d="M382.53 86.5668C381.163 86.5668 380.113 86.2668 379.38 85.6668C378.68 85.0668 378.313 84.4668 378.28 83.8668L378.23 83.0168V61.5668H381.73V83.0168C381.73 83.9835 381.913 84.7335 382.28 85.2668C382.68 85.7668 383.063 86.0335 383.43 86.0668L384.03 86.1668H385.58V86.5668H382.53ZM378.53 55.9668C378.13 55.5668 377.93 55.0668 377.93 54.4668C377.93 53.8668 378.13 53.3668 378.53 52.9668C378.93 52.5335 379.43 52.3168 380.03 52.3168C380.63 52.3168 381.13 52.5335 381.53 52.9668C381.963 53.3668 382.18 53.8668 382.18 54.4668C382.18 55.0668 381.963 55.5668 381.53 55.9668C381.13 56.3668 380.63 56.5668 380.03 56.5668C379.43 56.5668 378.93 56.3668 378.53 55.9668Z" fill="#474A51"/>
<path d="M390.498 74.3668C390.498 78.5001 391.214 81.5335 392.648 83.4668C394.114 85.4001 396.031 86.3668 398.398 86.3668C401.731 86.3668 404.698 85.8668 407.298 84.8668L407.448 85.2168C404.781 86.2501 401.764 86.7668 398.398 86.7668C395.064 86.7668 392.348 85.7668 390.248 83.7668C388.148 81.7668 387.098 78.6835 387.098 74.5168C387.098 70.3501 388.198 67.1168 390.398 64.8168C392.598 62.5168 395.398 61.3668 398.798 61.3668C401.531 61.3668 403.831 62.1835 405.698 63.8168C407.564 65.4501 408.498 67.8668 408.498 71.0668C408.498 71.2335 408.498 71.4001 408.498 71.5668H390.648C390.548 72.4668 390.498 73.4001 390.498 74.3668ZM405.098 71.1668C405.064 67.9668 404.448 65.6001 403.248 64.0668C402.048 62.5335 400.498 61.7668 398.598 61.7668C396.698 61.7668 394.998 62.6001 393.498 64.2668C392.031 65.9335 391.098 68.2335 390.698 71.1668H405.098Z" fill="#474A51"/>
<path d="M242.352 133.767C236.119 133.767 231.502 132 228.502 128.467C227.436 127.2 226.569 125.517 225.902 123.417C225.236 121.317 224.902 118.767 224.902 115.767C224.902 112.767 225.386 110.083 226.352 107.717C227.352 105.317 228.702 103.467 230.402 102.167C233.702 99.7335 237.686 98.5168 242.352 98.5168C243.686 98.5168 244.986 98.6335 246.252 98.8668C247.519 99.0668 248.469 99.2835 249.102 99.5168L250.002 99.8668L249.852 100.367C247.586 99.4668 245.086 99.0168 242.352 99.0168C238.819 99.0168 235.869 100.167 233.502 102.467C231.702 104.167 230.436 106.667 229.702 109.967C229.269 111.833 229.052 114.117 229.052 116.817C229.052 119.517 229.436 122.017 230.202 124.317C230.969 126.583 231.836 128.267 232.802 129.367C233.802 130.467 235.002 131.35 236.402 132.017C237.802 132.65 238.919 133.017 239.752 133.117C240.586 133.217 241.586 133.267 242.752 133.267C243.952 133.267 245.302 133.15 246.802 132.917C248.302 132.683 249.436 132.467 250.202 132.267L251.352 131.917L251.502 132.417C248.969 133.317 245.919 133.767 242.352 133.767Z" fill="#474A51"/>
<path d="M280.912 133.567C278.645 133.567 277.095 133.133 276.262 132.267C275.495 131.533 275.112 130.9 275.112 130.367V129.317C273.478 132.283 270.862 133.767 267.262 133.767C263.062 133.767 260.678 131.867 260.112 128.067C260.045 127.667 260.012 127.267 260.012 126.867C260.012 126.433 260.078 125.967 260.212 125.467C260.345 124.967 260.728 124.417 261.362 123.817C262.628 122.617 265.412 121.883 269.712 121.617C270.778 121.517 271.762 121.467 272.662 121.467C273.562 121.467 274.378 121.5 275.112 121.567V113.267C275.045 113.233 275.045 113.083 275.112 112.817C275.178 112.517 275.112 112.15 274.912 111.717C274.745 111.25 274.512 110.8 274.212 110.367C273.912 109.933 273.378 109.567 272.612 109.267C271.845 108.933 270.845 108.767 269.612 108.767C268.378 108.767 266.928 109 265.262 109.467C263.628 109.9 262.428 110.333 261.662 110.767L261.462 110.417C264.428 109.05 267.445 108.367 270.512 108.367C273.945 108.367 276.212 108.983 277.312 110.217C278.178 111.183 278.612 112.2 278.612 113.267V130.017C278.612 130.983 278.795 131.733 279.162 132.267C279.562 132.767 279.962 133.033 280.362 133.067L280.912 133.167H282.462V133.567H280.912ZM268.062 133.367C269.828 133.367 271.412 132.767 272.812 131.567C274.245 130.333 275.012 129.15 275.112 128.017V121.967C274.212 121.9 273.295 121.867 272.362 121.867C271.462 121.867 270.562 121.917 269.662 122.017C267.128 122.317 265.478 122.883 264.712 123.717C263.945 124.55 263.562 125.7 263.562 127.167C263.562 127.433 263.578 127.733 263.612 128.067C263.912 131.6 265.395 133.367 268.062 133.367ZM277.112 102.817L276.062 103.817L270.012 97.3168L264.212 103.567L263.862 103.317L270.712 96.0668L277.112 102.817Z" fill="#474A51"/>
<path d="M320.363 114.317C320.363 112.283 320.096 110.85 319.563 110.017C319.03 109.183 318.013 108.767 316.513 108.767C314.513 108.767 312.73 109.6 311.163 111.267C309.63 112.933 308.863 114.433 308.863 115.767V133.567H305.363V114.317C305.363 112.283 305.096 110.85 304.563 110.017C304.03 109.183 302.896 108.767 301.163 108.767C299.43 108.767 297.78 109.567 296.213 111.167C294.68 112.767 293.846 114.25 293.713 115.617V133.567H290.213V108.567H293.713V114.217C294.246 112.783 295.23 111.45 296.663 110.217C298.096 108.983 299.696 108.367 301.463 108.367C303.23 108.367 304.63 108.533 305.663 108.867C306.73 109.167 307.48 109.65 307.913 110.317C308.346 110.983 308.613 111.567 308.713 112.067C308.813 112.567 308.863 113.267 308.863 114.167C309.396 112.733 310.363 111.417 311.763 110.217C313.163 108.983 314.663 108.367 316.263 108.367C317.863 108.367 319.146 108.5 320.113 108.767C321.08 109.033 321.796 109.333 322.263 109.667C322.763 110 323.13 110.483 323.363 111.117C323.63 111.75 323.78 112.267 323.813 112.667C323.846 113.067 323.863 113.633 323.863 114.367V130.017C323.863 130.983 324.046 131.733 324.413 132.267C324.813 132.767 325.213 133.033 325.613 133.067L326.163 133.167H327.713V133.567H324.663C323.296 133.567 322.246 133.267 321.513 132.667C320.813 132.067 320.446 131.467 320.413 130.867L320.363 130.017V114.317Z" fill="#474A51"/>
<path d="M354.877 133.567C352.61 133.567 351.06 133.133 350.227 132.267C349.46 131.533 349.077 130.9 349.077 130.367V129.317C347.443 132.283 344.827 133.767 341.227 133.767C337.027 133.767 334.643 131.867 334.077 128.067C334.01 127.667 333.977 127.267 333.977 126.867C333.977 126.433 334.043 125.967 334.177 125.467C334.31 124.967 334.693 124.417 335.327 123.817C336.593 122.617 339.377 121.883 343.677 121.617C344.743 121.517 345.727 121.467 346.627 121.467C347.527 121.467 348.343 121.5 349.077 121.567V113.267C349.01 113.233 349.01 113.083 349.077 112.817C349.143 112.517 349.077 112.15 348.877 111.717C348.71 111.25 348.477 110.8 348.177 110.367C347.877 109.933 347.343 109.567 346.577 109.267C345.81 108.933 344.81 108.767 343.577 108.767C342.343 108.767 340.893 109 339.227 109.467C337.593 109.9 336.393 110.333 335.627 110.767L335.427 110.417C338.393 109.05 341.41 108.367 344.477 108.367C347.91 108.367 350.177 108.983 351.277 110.217C352.143 111.183 352.577 112.2 352.577 113.267V130.017C352.577 130.983 352.76 131.733 353.127 132.267C353.527 132.767 353.927 133.033 354.327 133.067L354.877 133.167H356.427V133.567H354.877ZM342.027 133.367C343.793 133.367 345.377 132.767 346.777 131.567C348.21 130.333 348.977 129.15 349.077 128.017V121.967C348.177 121.9 347.26 121.867 346.327 121.867C345.427 121.867 344.527 121.917 343.627 122.017C341.093 122.317 339.443 122.883 338.677 123.717C337.91 124.55 337.527 125.7 337.527 127.167C337.527 127.433 337.543 127.733 337.577 128.067C337.877 131.6 339.36 133.367 342.027 133.367Z" fill="#474A51"/>
<path d="M373.728 110.717V109.667C372.228 110.267 370.861 111.483 369.628 113.317C368.394 115.117 367.744 116.817 367.678 118.417V133.567H364.178V108.567H367.678V116.517C368.211 114.583 369.228 112.767 370.728 111.067C372.228 109.333 373.928 108.433 375.828 108.367H376.028C376.694 108.367 377.244 108.6 377.678 109.067C378.144 109.5 378.378 110.05 378.378 110.717C378.378 111.383 378.144 111.933 377.678 112.367C377.244 112.8 376.694 113.017 376.028 113.017C375.361 113.017 374.811 112.8 374.378 112.367C373.944 111.933 373.728 111.383 373.728 110.717Z" fill="#474A51"/>
<path d="M406.283 133.567C404.016 133.567 402.466 133.133 401.633 132.267C400.866 131.533 400.483 130.9 400.483 130.367V129.317C398.849 132.283 396.233 133.767 392.633 133.767C388.433 133.767 386.049 131.867 385.483 128.067C385.416 127.667 385.383 127.267 385.383 126.867C385.383 126.433 385.449 125.967 385.583 125.467C385.716 124.967 386.099 124.417 386.733 123.817C387.999 122.617 390.783 121.883 395.083 121.617C396.149 121.517 397.133 121.467 398.033 121.467C398.933 121.467 399.749 121.5 400.483 121.567V113.267C400.416 113.233 400.416 113.083 400.483 112.817C400.549 112.517 400.483 112.15 400.283 111.717C400.116 111.25 399.883 110.8 399.583 110.367C399.283 109.933 398.749 109.567 397.983 109.267C397.216 108.933 396.216 108.767 394.983 108.767C393.749 108.767 392.299 109 390.633 109.467C388.999 109.9 387.799 110.333 387.033 110.767L386.833 110.417C389.799 109.05 392.816 108.367 395.883 108.367C399.316 108.367 401.583 108.983 402.683 110.217C403.549 111.183 403.983 112.2 403.983 113.267V130.017C403.983 130.983 404.166 131.733 404.533 132.267C404.933 132.767 405.333 133.033 405.733 133.067L406.283 133.167H407.833V133.567H406.283ZM393.433 133.367C395.199 133.367 396.783 132.767 398.183 131.567C399.616 130.333 400.383 129.15 400.483 128.017V121.967C399.583 121.9 398.666 121.867 397.733 121.867C396.833 121.867 395.933 121.917 395.033 122.017C392.499 122.317 390.849 122.883 390.083 123.717C389.316 124.55 388.933 125.7 388.933 127.167C388.933 127.433 388.949 127.733 388.983 128.067C389.283 131.6 390.766 133.367 393.433 133.367Z" fill="#474A51"/>
<path d="M189.031 148.066H444.033M189.021 38.0664H444.041" stroke="#474A51"/>
<path d="M131.932 69.5249C127.376 67.7727 123.071 66.8966 119.016 66.8966C115.011 66.8966 111.882 67.7476 109.629 69.4498C107.376 71.1519 106.25 73.5049 106.25 76.5087C106.25 80.1633 108.152 82.9919 111.957 84.9944C113.659 85.8455 115.511 86.6465 117.514 87.3974C119.566 88.0983 121.619 88.8993 123.672 89.8005C125.724 90.7016 127.602 91.7279 129.304 92.8794C131.006 94.0308 132.383 95.6328 133.434 97.6854C134.485 99.688 135.011 102.266 135.011 105.42C135.011 108.524 134.135 111.177 132.383 113.38C130.63 115.583 128.503 117.085 126 117.886C123.546 118.637 120.668 119.012 117.364 119.012C111.206 119.012 105.949 117.485 101.594 114.432L101.969 113.831C103.621 115.132 105.749 116.209 108.352 117.06C111.006 117.861 113.709 118.261 116.463 118.261C120.518 118.261 123.972 117.335 126.826 115.483C129.729 113.58 131.181 110.802 131.181 107.147C131.181 103.142 129.279 100.013 125.474 97.7605C123.772 96.7593 121.894 95.8331 119.842 94.982C117.839 94.1309 115.812 93.2548 113.759 92.3537C111.707 91.4025 109.829 90.3512 108.127 89.1997C104.322 86.6966 102.42 83.1421 102.42 78.5363C102.42 74.8816 103.646 71.9279 106.099 69.6751C108.553 67.3722 112.232 66.2207 117.138 66.2207C122.095 66.2207 127.126 67.0718 132.232 68.7739L131.932 69.5249Z" fill="#474A51"/>
<path d="M156.267 118.079C148.851 118.079 143.358 115.977 139.789 111.774C138.52 110.267 137.489 108.264 136.695 105.765C135.902 103.267 135.506 100.233 135.506 96.6633C135.506 93.0939 136.081 89.9013 137.231 87.0855C138.421 84.23 140.027 82.0289 142.049 80.4822C145.976 77.587 150.715 76.1395 156.267 76.1395C157.854 76.1395 159.401 76.2783 160.908 76.5559C162.415 76.7938 163.545 77.0516 164.299 77.3292L165.369 77.7457L165.191 78.3406C162.494 77.2697 159.52 76.7343 156.267 76.7343C152.064 76.7343 148.554 78.1026 145.738 80.8391C143.596 82.8617 142.089 85.8362 141.217 89.7625C140.701 91.9835 140.443 94.7001 140.443 97.9126C140.443 101.125 140.899 104.099 141.812 106.836C142.724 109.533 143.755 111.536 144.905 112.844C146.095 114.153 147.523 115.204 149.188 115.997C150.854 116.751 152.183 117.187 153.174 117.306C154.165 117.425 155.355 117.485 156.743 117.485C158.171 117.485 159.777 117.346 161.562 117.068C163.347 116.791 164.695 116.533 165.607 116.295L166.976 115.878L167.154 116.473C164.14 117.544 160.511 118.079 156.267 118.079Z" fill="#474A51"/>
<path d="M210.589 93.3721L132.458 171.38L101.118 140.089L54.3281 93.3721L114.441 32.9785L132.458 14.877L210.589 93.3721ZM127.594 170.762L83.4023 159.927L100.059 143.271L127.594 170.762ZM51.4424 94.7285L97.9355 141.15L80.4639 158.623L5.80957 83.2646L51.4424 94.7285ZM111.246 31.9346L51.7461 91.7119L3.89453 79.6904L81.2188 2.60645L111.246 31.9346ZM129.508 13.5869L113.362 29.8086L86.1416 3.2207L129.508 13.5869Z" stroke="#474A51" stroke-width="3"/>
</svg>
