<svg width="117" height="105" viewBox="0 0 117 105" fill="none" xmlns="http://www.w3.org/2000/svg">
<path fill-rule="evenodd" clip-rule="evenodd" d="M99.1431 9.81081C94.2357 15.091 88.6152 21.1383 86.6533 23.2488C84.6914 25.3598 79.5715 30.8343 75.2749 35.4152L67.4643 43.7429L65.6416 41.551C63.4476 38.9118 39.2773 8.94209 35.4763 4.14731L32.7862 0.753886H16.5003C3.61113 0.753886 0.300917 0.895596 0.631341 1.43257C0.86068 1.80558 4.12741 5.89832 7.89087 10.527C13.9836 18.0213 19.0106 24.2484 43.3907 54.5036C46.8786 58.8325 49.7329 62.5197 49.7329 62.6967C49.7329 63.0192 45.5444 67.6098 33.1807 80.8388C29.5526 84.7209 23.8322 90.8833 20.4687 94.533C17.1052 98.1827 14.1325 101.305 13.8624 101.472C13.5928 101.639 12.8548 102.501 12.2222 103.387L11.0734 105H15.1259H19.178L29.4151 94.0053C35.0454 87.9585 41.2745 81.3003 43.2576 79.2099C45.2407 77.1196 48.4036 73.7528 50.2867 71.7281C52.1703 69.7035 53.9137 68.1153 54.1621 68.1989C54.555 68.3314 62.1292 77.6017 79.0128 98.616L83.6991 104.448L99.9121 104.453C108.83 104.455 116.044 104.255 115.944 104.009C115.782 103.607 107.647 93.5003 80.5514 60.0384C75.8314 54.2093 72.0408 49.1393 72.1277 48.7717C72.2674 48.1826 77.6455 42.3486 91.5754 27.6754C93.8194 25.312 96.022 22.9713 96.4704 22.4751C96.9187 21.9783 100.352 18.2928 104.101 14.2847C116.017 1.54496 116.578 0.927086 116.578 0.565483C116.578 0.370564 114.663 0.210938 112.322 0.210938H108.065L99.1431 9.81081ZM37.5665 17.4496C49.2036 31.8925 68.1469 55.3615 76.8368 66.1021C97.3127 91.4084 101.898 97.1614 101.902 97.5497C101.903 97.782 98.5458 97.9042 94.4406 97.8211L86.9756 97.6702L78.5444 87.302C73.907 81.5995 62.0515 66.9399 52.1991 54.7251C42.3462 42.5104 29.8738 27.0619 24.4827 20.3956C19.091 13.7293 14.5982 8.04894 14.4988 7.77204C14.3928 7.47885 17.4563 7.26927 21.8409 7.26927H29.364L37.5665 17.4496Z" fill="black"/>
</svg>
